<svg xmlns="http://www.w3.org/2000/svg" xmlns:xlink="http://www.w3.org/1999/xlink" viewBox="0 0 1920 1920"><defs><style>.cls-1{fill:none;}.cls-2{clip-path:url(#clip-path);}.cls-3{fill:#f16024;}.cls-10,.cls-11,.cls-3,.cls-4,.cls-5,.cls-6,.cls-7,.cls-8,.cls-9{fill-rule:evenodd;}.cls-4{fill:#f8f5f8;}.cls-5{fill:#181819;}.cls-6{fill:#19b261;}.cls-7{fill:#fff;}.cls-8{fill:#b19659;}.cls-9{fill:#f06023;}.cls-10{fill:#1074b4;}.cls-11{fill:#1474b4;}</style><clipPath id="clip-path" transform="translate(0 0)"><rect class="cls-1" width="1920" height="1920"/></clipPath></defs><title>KLHK</title><g id="Layer_2" data-name="Layer 2"><g id="Layer_1-2" data-name="Layer 1"><g class="cls-2"><path class="cls-3" d="M1920,960c0,530.19-429.81,960-960,960S0,1490.19,0,960,429.81,0,960,0s960,429.81,960,960" transform="translate(0 0)"/><path class="cls-4" d="M1604.72,1504.54c-1.84-7.86-11.21-25.33-15.44-33.34a341.1,341.1,0,0,0-18.83-30.94c-27-39.74-62.87-72.13-106.9-92-17.92-8.13-54.71-21.08-76.82-22.15,2.14,9.9,31.57,53.67,37,61,14,19,29.57,37.73,46.61,52.81,17.48,15.46,34.57,28.62,58.55,40.9,17.7,9.06,53.06,22.71,75.82,23.75" transform="translate(0 0)"/><path class="cls-4" d="M360.6,1274.62c25.07-13,76.6-4,89.46-12-4.49-9.2-56.45-47.94-80.26-18.16-4.62,5.8-10.38,20.12-9.2,30.15" transform="translate(0 0)"/><path class="cls-4" d="M676.9,1241.53c16.91,4.6,29.73,2.61,47.69,3.38,18.75.8,26.37,2.66,42.2,8-.08-23.65-13.21-44.19-39-40.81-16.13,2.12-47.91,19.69-50.87,29.39" transform="translate(0 0)"/><path class="cls-5" d="M844,951.52c-8.5-.74-19.36,5.48-29.73,5l2.22,12.29c27.12,1.36,46.47,1.09,69.89-18,16.83-13.71,25.07-31.72,31.6-57.42,5.54-21.73,3.36-60.77,3.4-86.12l.09-89c-3.13-2.77-18.83-7.67-23.71-7.28-9.94,14.41-28.52,27.94-47.44,36.34C788.15,775.13,706.5,754.58,673.45,694c-10.64-19.53-17.83-42.5-14.91-69.38,2.4-22,13.91-46.76,24.63-59.66,45.47-54.89,108.65-47.48,118-50.58,1.31-3.22,3.44-21.75,2.66-25.56-2.18-.83-7.37-1.73-9.72-2.4-34.18-9.92-57.51-36.21-64.66-72.07-7.93-39.8,18.31-74.35,53.45-92.14,17.09-8.67,43.69-10.72,63.83-6.21,22.54,5,16.7,7.8,26.9-3.42,2.52-2.77,5.88-4,4.62-9.7-5.1-22.63-13.69-48.22,1.22-73.42,38.54-65.22,125.52-56.44,157.6-15.78,9.5,12,13.47,24.45,16,43.36,3.58,27-6,39.47-7.19,51.24,19.53,16.13,7,13.95,35,7.68,60.81-13.63,121.24,33.24,116.44,90.63-3.53,43.1-30.34,73.24-75.42,82.6,2.53,33.89,3.36,25.48,25.5,26.61,40,2,72.28,21.15,96.4,50.7,27.94,34.25,34.26,87.88,9.15,128.31-46.91,75.7-150.63,86.25-214.32,27.09-3.31-3.07-7-8-10.81-10.63-3.14.19-19.93,5-22.45,6.49-1.14,15.78,0,67.77,0,87.63,0,26.51-2.23,60.69,2.52,84.93,5.11,26.2,15.13,44.62,29.91,58.15,11.77,10.78,41.07,26.88,66.22,20.89l3.32-16c-8.63-.82-19.88,2.42-26.86-1.83-14.78,0-33.3-14.82-42.07-27.53-22.27-32.3-16.3-82.22-16.35-123.33,0-23-.74-47.26,0-70.15,3.84.94,6.58,5,12.51,9.83,32.61,26.68,77,41.35,120.9,35,54.28-7.87,88-36,110.65-70.21,27.59-41.72,24.06-99.4-2.71-140.14-16.69-25.46-47.21-49.46-77.21-58.62-6.75-2.07-11.64-3-18.18-4.67-5.23-1.3-15.34-1.34-19.44-3.11,12.86-7.09,21.15-10.29,31.91-20.62,8.2-7.91,17-17.68,23.28-29.32,12.56-23.13,13.87-61.65,2.36-86.45-16.57-35.69-53.84-62-93.12-64.83-29.48-2.07-34.18,4.23-47.74,4.88,1.87-17.7,8.72-24.15,3-55.6-3.44-18.77-8.8-31.66-18.53-43.67-29.25-36.07-91.72-49-137.93-26.22-24.33,11.94-49.66,39.45-55.5,68.86-5.24,26.27,3.05,40.79,3.62,56-7.37-.7-14.39-2.86-22.72-3.82a139.24,139.24,0,0,0-25.5-.17,106.13,106.13,0,0,0-40.42,12.08c-81.26,42.63-74,139.53-9.5,180.29,5.14,3.27,13.12,6.21,17.39,9.29-10.29,2.65-18.66,1.78-37.4,7.6a156.33,156.33,0,0,0-31.35,13.67,137.14,137.14,0,0,0-25.94,19c-7.93,7.61-16.65,16.94-21.32,24.59-26.9,43.55-29.51,93.73-2.87,140.22,22.23,38.76,64.52,65.18,110.17,70.43,39.8,4.62,77.38-3.81,108.72-24.28,9.59-6.23,23-19.25,25.33-20.47,1,7,.22,58.18.22,69.65,0,23.59-.13,47.22-.26,70.8-.13,17.63-8.11,42-16.61,54.19-6.89,9.79-25.15,27.6-43.86,26.83" transform="translate(0 0)"/><path class="cls-5" d="M863.62,124.32c-32.74,2.84-67,13.89-97.26,21.26-3.15,1.68-13.65,4.27-17.79,5.71-5.67,1.94-11.56,3.92-17,5.86-10.6,3.79-23.42,8.52-33.7,13.08-10,4.19-20.1,8.65-29.78,13.36s-19.53,10.38-29,14.46l-50,30c-8.06,5.23-15.87,10.64-24,16.17l-23,17.27c-10,8.39-20.1,15.47-29.3,24.19-4.14,4-9.5,8.57-14.17,12.62-3.87,3.4-10.37,10.79-14.16,12.69-2.84,4.73-8,8.42-12,12.75-3.62,4-8.33,8.31-11.77,12.12-7.23,7.87-15.3,17.92-22.89,25.83-4.14,6.26-22.49,27.95-31.3,40.51-7.32,10.42-23.85,33.43-29.08,43.79-5.67,8.24-22.14,37.77-27,48.39-2,4.38-5.23,13.58-9.42,16.2,1.39,1.78-3.49,10.72-4.8,13.58-2.26,5-4.1,9.33-6.36,14.69-3.75,8.89-9,21-11.78,30.45a327.14,327.14,0,0,0-11.29,33.59c-1.56,5.6-3.53,11.16-5,16.87-1,4-3.31,14.43-4.53,17l-5.15,23.41c-1.65,8-3.4,17-5,25.22-1.39,7.06-2.44,21.14-4.49,26.68.13,11.69-2.88,28-3.75,40.76-1,14.11-2.14,29.84-1.74,44,.08,35.18,1.39,70.16,6.62,103.38L300,903.13c1-2.25.17-6.1-.18-8.65-7.06-49.05-8.76-112.13-2.66-159.7C305.41,670,310,647.57,329.74,586.34c13.77-42.75,35.79-88.61,56.89-123.67,12.12-20.05,22.59-36.79,35.75-54.18,31.83-42,68.05-83.58,109-116.78,26.76-21.73,48.22-38.34,78.56-57.26A665.46,665.46,0,0,1,962.8,133.63c154.55.22,293.23,51,406.1,136.63,18.71,14.17,32.83,26.58,48.88,41,14.21,12.74,33,31.37,45.16,45.72,63.44,74.63,98.23,129.83,133.84,227.7,16.35,44.84,26.77,95.76,32.88,147.86,5,43.09,4.27,85.77,1.13,129.33-1,13.75-4.32,29.23-4.54,42l16.31-3.21c4-16.89,6.71-49.54,6.76-68,.78-13.62.78-28,.52-41.63-.17-9.05-2.4-33.09-1.26-40-1.66-3.88-3.14-26.55-3.8-32.72-1-10.51-2.87-21.45-4.44-31.17-4.93-20.82-8.2-41.07-13.65-61.69s-12.56-39.08-18.4-58.46c-3.79-7.61-7.32-19-10.72-27.16-3.62-8.7-8.55-18.1-11.21-26.18l-16-32.2c-2-2.22-6.62-11-8.59-14.84-2.65-5.08-5.53-9.29-8.5-14.52l-17.7-28.41c-7.85-11-14.47-20.75-22.15-31.19-3.66-5-20.75-27.68-23.54-29.49l-52.71-56.94a45.93,45.93,0,0,1-8.58-7.58c-3-3.16-5.41-4.67-8.5-7.76A193.76,193.76,0,0,0,1402,275.28c-10.77-9.2-20-15.55-30.48-23.9-9.76-7.75-21.53-14.27-31.69-22.51l-32.91-20c-23.11-13.54-46.91-25.05-71.24-35.88-11-4.88-26.73-11.66-38.58-15.19-5.63-2.45-13.47-4.84-20.41-7.13-7.58-2.51-13.64-4.19-21.23-6.39-5.53-1.61-42.2-10.92-43-11.4-9.58-.94-22.14-4.32-32.39-6.06-9.37-1.64-25.46-2.79-33.57-5.1-14.73-.54-30-3.23-45.38-3.83-23.94-1-72.59-1.66-95,1.43-11,1.55-33.75,2.12-42.51,5" transform="translate(0 0)"/><path class="cls-6" d="M816.49,968.85l0,19.8.91-5.5c26.9.66,59.73-13.1,78.47-31.32,18.14-17.64,35.23-49.18,35.36-75.58.22-37,.05-74,0-111,0-18.38,1-100-.26-110.67l-162.1-.35L766.36,643c32.48-8.85,39.67-9.61,70.1-25.11,20.71-10.57,40.8-27.07,53.41-42.31,29.68-35.94,45.38-85.49,42.24-148.9-8.63,0-25.24,4.38-47.74,4.22-27.77-.19-58.16-7.84-76-27.72-7.32-8.15-15.47-22.08-16.48-35.6,2.71.13,17.83,7.39,22.72,9.22,24.63,9.24,60.25,12.4,85.23,5A72.4,72.4,0,0,0,938,355c8.59-11.92,16.44-31.44,12.95-52.16-7-1.18-14.69-.22-22.32-1.73-6.11-1.22-12.91-4.27-17.83-6.95-7.46-4.06-23.33-17.35-25-23.89,19.74-.07,52.62,5.47,68.31-15.85,2.09-2.83,3-5.45,4.88-7.48l12.47-.15c5.06,7.61,5.11,15.83,26.34,21.67,14.16,3.9,30.34,2.16,45.82,2-3.75,12.13-25.16,26.42-42.08,30.48a54.18,54.18,0,0,1-10.94,1.5c-2,.07-9.94-.46-11.42,1.11-3.27,5.19-.17,23,1.44,28.93,12.34,45.62,63.69,60.53,107.81,51.34a225.1,225.1,0,0,0,25.25-7.13c5.84-2,20.31-8.83,24-9.29-1.58,25.44-23.72,46.65-47.31,55.72-40.63,15.6-89.85,3.53-92.55,4-3.93,48.87,9.76,112,40.5,148.9,40.67,48.79,119.71,63.92,124.38,66.86-.13,4.16-.26,7.82-1.83,10.81-19.84,1.09-155-2.18-160.22,1-2.31,1.94-2.09,48.39-2.14,52.25-.74,53.08-2.39,110.41-.43,162.66a119.64,119.64,0,0,0,32.13,77.1,136.15,136.15,0,0,0,29.95,24.55c8.9,5.18,30.78,12,44.73,11.07l-.79-12.86c-25.15,6-54.45-10.11-66.22-20.89-14.78-13.53-24.8-32-29.91-58.15-4.75-24.24-2.57-58.42-2.52-84.93,0-19.86-1.14-71.85,0-87.63,2.52-1.5,19.31-6.3,22.45-6.49,3.83,2.61,7.5,7.56,10.81,10.63,63.69,59.16,167.41,48.61,214.32-27.09,25.11-40.44,18.79-94.06-9.15-128.31-24.12-29.55-56.42-48.69-96.4-50.7-22.14-1.13-23,7.28-25.5-26.61,45.08-9.36,71.89-39.5,75.42-82.6,4.8-57.39-55.63-104.26-116.44-90.63-28,6.27-15.48,8.45-35-7.68,1.17-11.77,10.77-24.28,7.19-51.24-2.53-18.91-6.5-31.33-16-43.36C1005,173.06,918,164.28,879.49,229.5c-14.91,25.2-6.32,50.79-1.22,73.41,1.26,5.67-2.1,6.94-4.62,9.71-10.2,11.22-4.36,8.47-26.9,3.42-20.14-4.51-46.74-2.46-63.83,6.21-35.14,17.79-61.38,52.34-53.45,92.14,7.15,35.86,30.48,62.15,64.66,72.06,2.35.68,7.54,1.58,9.72,2.41.78,3.81-1.35,22.34-2.66,25.56-9.37,3.1-72.55-4.31-118,50.58-10.72,12.9-22.23,37.64-24.63,59.66-2.92,26.88,4.27,49.85,14.91,69.38,33,60.54,114.7,81.09,176.87,53.41,18.92-8.4,37.5-21.93,47.44-36.34,4.88-.39,20.58,4.51,23.71,7.28l-.09,89c0,25.35,2.14,64.39-3.4,86.12-6.53,25.7-14.77,43.71-31.6,57.42-23.42,19.05-42.77,19.32-69.89,18" transform="translate(0 0)"/><path class="cls-6" d="M814.27,956.56c10.37.43,21.23-5.78,29.73-5,3.75-2.68,3.53-2.37,2.14-7.56a105.83,105.83,0,0,0-9.16-22.3A137,137,0,0,0,828.66,909c-2.14-2.72-7.5-8.54-10.34-10.68-19.92-14.75-32.61-19.18-61.91-22.91-10.63-1.35-30.34-1.76-41.06,0-6.32,1-13.56,0-20.1,1-16.87,2.51-75.55,11.47-89.77,16.61-21.84,7.85-48.39,10.75-69.57,15.48-41.82,9.37-120.64,8.13-161.36,5.31-13.12-.91-67.14-6.47-74.55-10.61l-16.26-2.88c-5.23-33.22-6.54-68.2-6.62-103.38-10.86-3.19-29-26.1-35.32-36.52-18.39-30.19-42.81-53.93-72.19-73.18-7.94-5.21-39.28-25.11-46.91-26.52-3.23,9.61-11,28.68-12.34,39,10.55,4.3,35.4,20,44.07,27.57,21.67,18.79,31.35,36.17,46.91,60.21A265.62,265.62,0,0,0,233,827.49c5.88,6.13,13.25,12.32,18,17.79-34.53-1.66-93.34-35.58-122.25-55.15l-35.35-25c-3,5.21-10.86,49.64-11.07,58.51.91,3.29,60.12,51.07,64.08,54.1C219.79,933,335.14,949.15,431,949.32a734.63,734.63,0,0,0,110-8c34.84-5.12,63.53-14.72,97-21.58,36.19-7.41,66.88-13.06,106.73-11.77,24.45.78,49.91,6.47,61.55,27.27a62.74,62.74,0,0,1,4.32,10.07c1.3,3.71,2,8.08,3.62,11.27" transform="translate(0 0)"/><path class="cls-6" d="M1649.32,832.72c0,18.44-2.71,51.1-6.76,68l-16.31,3.2L1589.46,910c-66.14,8.33-130.92,9.22-197.67-1.59-18.18-3-51.7-9.24-69.23-15.15-11.64-3.95-55.81-11.75-70.67-14.37-52.8-9.22-130.35-10.44-160,42.09-3.44,6.13-11.55,22.29-11.38,30.52,7,4.25,18.23,1,26.86,1.83,11.55-26.74,35.49-43.29,72.54-45.27,38.8-2.07,72.59,4.23,107.34,11.12,17.26,3.4,31,7.67,47.47,11.63s31.87,7,49.44,10c100,17.42,225.92,7.89,317.69-22,52.32-17.05,87.45-45.11,127-80.42,5.28-4.7,11.55-8.94,15.91-13.86.13-9.44-14-80.46-17.35-85.87-2.57,1.08-15.56,12.78-18.22,15-6.06,5.21-13.47,10.77-19.4,15a490.66,490.66,0,0,1-41.07,26.85c-22.5,13.08-68.67,33.79-99.44,37.1" transform="translate(0 0)"/><path class="cls-6" d="M1640.34,687.22c1.57,9.72,3.4,20.66,4.44,31.17.66,6.17,2.14,28.84,3.8,32.72L1688,725.26c35.57-24.48,58.5-45.26,89.37-73.22,5-4.54,12.12-12.21,16.92-15.59-.44-7.43-22.63-57.9-26.12-61.45l-28.91,31.28a423.72,423.72,0,0,1-30.69,29.58c-11.46,9.77-55.71,47.09-68.22,51.36" transform="translate(0 0)"/><path class="cls-6" d="M297.26,636.75c1.22-2.59,3.53-13,4.53-17,1.48-5.71,3.45-11.27,5-16.87a327.14,327.14,0,0,1,11.29-33.59c-4.13-1.09-10.54-8.35-13.59-11.25-4.93-4.62-8.2-8.09-12.74-13.1-17.39-19.21-30.21-36-44.12-59.16-3.35-5.6-16.3-30.95-18.44-33-4.49,4.25-26.46,40.17-31.26,47.91s.79,13.58,8.81,26.92A387.14,387.14,0,0,0,258,595.88l35.23,34.6c2.66,2.11,4.22,2.18,4,6.27" transform="translate(0 0)"/><path class="cls-6" d="M863.62,124.32c8.76-2.85,31.47-3.42,42.51-5,22.36-3.09,71-2.39,95-1.43,15.43.6,30.65,3.29,45.38,3.83,1.66-6.82,10.6-20.29,14.43-25.46,6.45-8.61,17.44-18.46,19-22-12.56-2.84-63.91-7.54-78-6.72-5.23.33-9.07,5.39-12.25,9.11a114.45,114.45,0,0,0-16.13,25.92c-2.48,5.39-4.27,12.71-6.93,14.2-2.4-1.25-11.43-18.4-19.14-27.75-5.54-6.76-16.79-21.61-26.73-21.34-13.25.37-80.08,4.92-85.93,8.87,6.94,7.63,11.3,10.79,17.45,20.7,3.53,5.76,10.63,19.25,11.33,27" transform="translate(0 0)"/><path class="cls-6" d="M341,510.54c4.18-2.61,7.41-11.81,9.42-16.19,4.84-10.62,21.31-40.15,27-48.4-8.8-3.4-30.38-33-37-43.44A283.29,283.29,0,0,1,326,376.74c-4.23-8.54-8.15-19.5-12.6-27.41-2.36.91-2.66,1.39-4.8,3.68l-36.45,42c-3.13,3.62-5.71,4.89-3.35,11.12,9.33,24.39,37.88,65.33,55.15,85.54,5.88,6.84,12.56,12.92,17.09,18.87" transform="translate(0 0)"/><path class="cls-6" d="M542.14,261.46l23-17.27c8.11-5.53,15.92-10.94,24-16.17l50-30c-1.75.54-1.66,2.22-2.31-5.8l-1.14-26.68c0-12.41.48-24.22.88-36.34-7.16.5-39.33,16.85-49.27,20.2-2.79,20.52,2.61,46,2.75,66.27-3.62-1.72-16.66-19.16-20.23-23.39-4.62-5.43-15.52-20.36-20.14-23.78-12.86,5-36.27,21.14-49.09,27.34,1.31,4.77,17.22,27.31,20.7,32.52,3.84,5.71,20,28.57,20.89,33.07" transform="translate(0 0)"/><path class="cls-6" d="M1586.36,513.73c2.66,8.08,7.59,17.48,11.21,26.18,3.4,8.13,6.93,19.55,10.72,27.16,1.31-3.84,11-5,14.87-6.13,15.13-4.4,38.71-8.15,54.14-9,13.7-.76,27-1.26,41.12-1,5.92.13,37,2.53,39,1.94-1.57-5.82-26.07-50.37-29.51-52.82-9.59-3.07-62.56.48-75.47,1.4-34.83,2.48-52,10.44-66.05,12.21" transform="translate(0 0)"/><path class="cls-6" d="M282.61,712.07c2.05-5.54,3.1-19.62,4.49-26.68,1.61-8.18,3.36-17.24,5-25.22-2.27,1.35-.3,1.92-7.32-3.08-3.14-2.2-4.71-3.4-7.76-5.66-15.17-11.23-32.79-21.26-49.74-29.63-14.66-7.23-63.61-26.92-78.52-27.11-4.19,13.23-15.18,31.3-17.66,44.68,92.25,9.16,138.77,66.44,151.5,72.7" transform="translate(0 0)"/><path class="cls-6" d="M1535.57,423.76l17.7,28.41c3,5.23,5.85,9.44,8.5,14.52,2,3.79,6.59,12.62,8.59,14.84.44-2,17.88-19.92,19.49-21.8,3.05-3.61,5.89-7.69,9.29-11.7,12.47-14.52,40.85-38.43,61-45.12-2.05-5.93-35.62-43.8-41.2-48.72-5.14,1.17-19.48,10.76-24.06,14a244.45,244.45,0,0,0-40.63,35.9c-2.4,2.64-15.48,18.47-18.71,19.66" transform="translate(0 0)"/><path class="cls-6" d="M1437.17,306.14l52.71,56.94c22.76-4.93,32.26-5.06,56.77-12.51,16.22-4.95,37.14-13.71,45.68-23.35-1.7-3.79-9.59-10.6-13.08-13.89l-28.51-26.09c-4.88-4.12-5.62-.5-19.75,3.67-30.21,8.87-42.46,7.28-69.92,11.11-8.07,1.14-16.31,3.4-23.9,4.12" transform="translate(0 0)"/><path class="cls-6" d="M437.81,361.66c7.59-7.91,15.65-18,22.89-25.83,3.44-3.81,8.15-8.13,11.77-12.12,4-4.33,9.2-8,12-12.75-15.34-2.86-35.09-9.55-48.21-15.78-16.48-7.8-26.77-15.17-39.68-24.2-4.75,1.66-38.89,32.11-41.5,36.15,5.19,9.67,56.15,39.91,71.8,48.1,4.76,2.49,8.68,3.8,10.9,6.43" transform="translate(0 0)"/><path class="cls-6" d="M1339.78,228.87c10.16,8.24,21.93,14.76,31.69,22.51,10.47,8.35,19.71,14.7,30.48,23.9,1-3.16,2.66-2.64,8.24-5.73,18.48-10.17,47.52-30.89,59.25-44.69-2-3.16-47-32.66-53.28-34.31-13.34,9.5-16.26,14.12-34.31,23-8,3.93-32.17,14.41-42.07,15.35" transform="translate(0 0)"/><path class="cls-6" d="M1112.42,132.91c.79.48,37.46,9.79,43,11.4,7.58,2.2,13.65,3.88,21.23,6.39,6.94,2.29,14.78,4.68,20.41,7.13,4.22-8.31,61.51-37.24,64.12-40-18.22-7.86-63.51-20.07-84.44-25.46-12.29-3.16-10.24-2.61-18.79,3.41-5.27,3.7-10.51,7.78-15.82,11.9Z" transform="translate(0 0)"/><path class="cls-6" d="M697.87,170.23c10.28-4.56,23.1-9.29,33.7-13.08,5.44-1.94,11.33-3.92,17-5.86,4.14-1.44,14.64-4,17.79-5.71-6.28.93-23.85-14.28-29-18.53-9.2-7.63-16.61-15.59-25.11-23.7-6.54,0-55,16.28-58.29,19.19,5.88,13.9,42.29,44.31,44,47.69" transform="translate(0 0)"/><path class="cls-7" d="M1046.46,121.75c8.11,2.31,24.2,3.46,33.57,5.1,10.25,1.74,22.8,5.12,32.39,6.06l29.7-25.26c5.31-4.12,10.55-8.2,15.82-11.9,8.55-6,6.5-6.57,18.79-3.41,20.93,5.39,66.22,17.6,84.44,25.46-2.61,2.79-59.9,31.72-64.13,40,11.86,3.53,27.6,10.31,38.59,15.19,24.33,10.83,48.13,22.34,71.24,35.88l32.91,20c9.9-.94,34-11.42,42.07-15.35,18.05-8.85,21-13.47,34.31-23,6.28,1.66,51.31,31.16,53.28,34.32-11.73,13.8-40.77,34.52-59.25,44.68-5.58,3.1-7.28,2.58-8.24,5.74a193.75,193.75,0,0,1,18.13,15.51c3.1,3.1,5.46,4.61,8.5,7.77a46.3,46.3,0,0,0,8.59,7.58c7.59-.72,15.83-3,23.9-4.12,27.46-3.83,39.71-2.24,69.93-11.11,14.12-4.17,14.86-7.78,19.75-3.67l28.5,26.09c3.5,3.3,11.38,10.1,13.08,13.89-8.54,9.64-29.46,18.4-45.68,23.35-24.51,7.45-34,7.58-56.77,12.51,2.79,1.81,19.88,24.48,23.54,29.49,7.68,10.44,14.3,20.19,22.15,31.19,3.23-1.19,16.31-17,18.71-19.66a244.45,244.45,0,0,1,40.63-35.9c4.58-3.24,18.92-12.84,24.06-14,5.58,4.92,39.15,42.79,41.2,48.72-20.18,6.69-48.56,30.6-61,45.12-3.4,4-6.24,8.09-9.29,11.7-1.61,1.88-19,19.84-19.49,21.8l16,32.2c14.09-1.77,31.22-9.73,66.05-12.21,12.91-.92,65.88-4.47,75.46-1.39,3.45,2.44,28,47,29.52,52.81-2,.59-33.05-1.81-39-1.94-14.13-.3-27.42.2-41.12,1-15.43.83-39,4.58-54.14,9-3.88,1.14-13.56,2.29-14.87,6.13,5.84,19.38,12.91,37.71,18.4,58.46s8.72,40.87,13.64,61.69c12.52-4.27,56.77-41.59,68.23-51.36a423.72,423.72,0,0,0,30.69-29.58L1768.16,575c3.49,3.55,25.68,54,26.12,61.45-4.8,3.38-12,11-16.92,15.59-30.87,28-53.8,48.74-89.37,73.22l-39.41,25.85c-1.14,6.89,1.09,30.93,1.26,40,.26,13.64.26,28-.52,41.63,30.77-3.31,76.94-24,99.44-37.1a490.66,490.66,0,0,0,41.07-26.85c5.93-4.25,13.34-9.81,19.4-15,2.66-2.27,15.65-14,18.22-15,3.4,5.4,17.48,76.42,17.35,85.86-4.36,4.93-10.63,9.16-15.91,13.86-39.59,35.32-74.73,63.37-127,80.42-91.77,29.88-217.68,39.41-317.69,22-17.57-3-32.83-6-49.44-10s-30.21-8.24-47.47-11.64c-34.75-6.89-68.54-13.19-107.34-11.12-37.05,2-61,18.53-72.54,45.27l-3.32,16,.79,12.86c11.29,18.83-.44,11.6,28.29,29.69,43.38,27.29,86.67,36.16,140.56,31.78,26.59-2.18,96.35-16.09,119.67-25.79,6.58-2.74,12.64-6.1,19.79-8.87,137.6-53.36,226.49,62.72,394.38,25.14,15.34-3.43,38.63-11.67,45.3-13-.4,19.4-4.19,57.64-8.37,75.08-1.4,10.76-7.77,51.13-11.25,58.37-45.26,12.21-147.19-2.92-199.94-4,3.14,11.35,21.85,27.76,31.26,33.83,42,27.18,97.7,38.51,148.75,43.53-1,6.6-11.42,36.86-14.52,42.33-13.9.7-46.73-5.32-61.12-7.78-59.42-10.25-102.23-23.57-157.38-47.39-16-6.89-31-15.24-47-21.76a473.42,473.42,0,0,0-50.14-17.7c-39.37-11.09-81.17-13.23-125.08-9.48,2.92,12.1,27.08,27.75,39.33,34.85,14.6,8.53,33.48,16.2,49.83,23.81,16.57,7.76,33,16.15,49.17,24.48,23.94,12.4,125.56,67.53,146,75.83,44.34,18,73.59,25,122,25-3.27,11.26-12.56,26-18.45,36.47-2.13,3.79-3,8.13-7.8,9.56-16.21,4.84-46.08,6.48-64.3,6.54,0,4.36,16.17,33.48,19.92,40.4,5.32,9.92,10,12.51,5.49,19.2-16,23.48-33.61,47.22-52,68.53-3,3.45-10.68,11.45-13.3,16.22-7-1.33-28.42-12.6-36.53-16.15-36.49-15.93-72.55-29.36-111.83-40.22-38.45-10.62-130.44-31-172.55-31.08,2.44,6.38,16.52,24.71,21.1,30.43a332.51,332.51,0,0,0,23.8,26.85c40,41.29,75.77,58.79,133.1,71.43,33.27,7.33,59.12,8.09,92.74,9.73-2.27,5.19-46.13,44.16-55.72,50.68l-70.67-15.17c.22,10.79,4,21,8.37,29,4.1,7.37,13.47,17.09,15.56,22.08l-32.57,21.64c-7.19-4.84-19-18.89-25.89-25.68-16.66-16.43-35.71-32.52-54.15-47.23l-29-21.73c-19.14-14.87-38.54-29.58-56.94-45.37-36-30.95-65.52-70.91-90.16-113.59-23.71-41.2-53.84-84.36-88-115.68-12.39-11.32-44-37.86-60.43-40.81-3.53,6.67-7,33.33-7.89,42.45a208.34,208.34,0,0,0,1.22,48.15c10.64,71.39,51.57,108.73,100.84,151.76,44.51,38.82,94.12,74.63,142,109.58,16.17,11.79,98.44,76.16,109.43,92.66-2.32,3.56-35.75,20.25-41.38,21.8-5-3.53-12.12-11.53-17-16.24-11.91-11.29-39.41-39.52-51.75-47.56,1,5.88,4.88,14.56,7,20.62,2.4,6.93,4.93,13.86,7.2,20.51,3.26,9.55,12.25,32.3,13.34,41-3.36,2.77-39.59,16.74-44.82,17.24-4.36-4.42-9.72-12.88-13.6-18-20.36-27-40-53.47-69.1-70.45-18.49-10.79-80.27-58.27-95.65-73.72-20.5-20.56-43.08-39.43-61.74-61.65-2.18-2.55-12.38-15.41-14.34-16.52-25.59,13.71-40.72,49.7-45.47,78.19-7.07,42.64-.48,72.63,3.53,113.59-8.72-3.83-33.88-31-40.41-39.34-39.28-49.42-60.95-112.74-50.27-181.15-15.7,1.7-40.07,10.9-52.71,16.74-53,24.5-82.48,73.75-43.86,127.59,19.06,26.55,39.68,54,59.47,78.3,12.21,15.06,19.27,22.84,27.42,41.5,5.49,12.58,14.25,38.71,15.74,52.56-13.25,1.33-50-5.69-64.53-7.81-6.84-24.35-20.18-52-31-72.17-9.28-17.35-28.29-47.17-43.77-59.38-6.23,5.23-19.14,36.41-23.32,48.26-6.71,19-9.81,36.25-13.95,56.81-6.67-.85-48.83-15.24-53.62-18.16,1.43-17.48,17.39-55.54,12.25-93.71-6.41-48-41.16-13-56.94-.76-12.38,9.63-48.31,40.15-61.3,44.92-4.18,1.53-13.56-5.14-17.7-7.47-10.9-6.13-42.15-23-48.17-29.85,7.63-5.25,16.87-9.74,25.11-15,38.71-24.61,80.57-54.52,101.36-96.61,7.85-15.87,21.19-49.79-6.36-52.71-9.46-1-26.12,2.66-36.15,3.72-38.27,4.15-39.1,1.9-74.63.84-44.78-1.34-101.58-3.84-141.56,16.12-12.12,6-18.57,12.58-23.94,15.39-3.7-2.59-31.82-32.91-34.79-38.36,3.45-5.91,9-11.12,14.69-17.24l13.78-14c1.92-2,.57-.06,2-2.57-21.63-1-35.67,3.42-55,5-5.89-8.13-35.27-44.56-36.19-51.18,15.79-1.16,40.55-1.72,54.41-6.08-4.45-3.16-16.13-4.06-21.49-5.19-7.28-1.5-14.39-2.81-21.49-4.38-6.76-1.51-14.43-3.1-21.23-4.69-5.45-1.26-5.8-.94-8.29-5-9-14.87-38.36-61.67-41.46-74.49,5.67,1.33,12.73,4.88,18.75,7.26s11.51,4.56,17.87,7c90.51,34.94,191.78,65.79,290.88,56.72,92.34-8.46,185.24-40.52,246-106.86,5.46-6,18.79-20,22.54-27.37-9.11,3-19.79,9.19-30,13.25-32.91,13-67.48,20.14-103.88,23.21-50.75,4.28-113.7.75-163.49-4.83-90.07-10.1-183.54-12-271.78,10.65-7,1.79-27.73,9.18-32.44,9.4-3.57-5.6-20.79-41.79-21.8-47.7,4.32-2.46,12.64-5.05,17.57-7.08,5.76-2.31,11.51-4.49,17.74-7.13,20.41-8.56,86.94-37.14,90.38-55.19a705.61,705.61,0,0,0-115.4-5.43c-12.29.46-25.9,2.86-37.45,3l-10.59-39.11c5.45-3.44,25.37-6.41,33.26-8.17,6.54-1.47,29.17-5.74,32.88-8-15.92-6.65-35-12.69-52.8-18.93l-20.45-7.3c-3.4-1.24-3.53-.7-4.66-3.79-1.88-5-4.8-24.22-5.76-30.34a591.52,591.52,0,0,1-10.5-83.64c5.58,1.56,14.21,6.93,20,9.63,55.63,25.76,104.15,34.4,167.15,23.46,103-17.92,164.23-60.17,290.61-52.43,38.11,2.33,59,10.07,95.39,18.11,53.58,11.88,118.93,23.16,160.83-19.44,4.45-4.51,6.89-12.34,7.81-20.42l0-19.8-2.22-12.29c-1.66-3.18-2.31-7.56-3.62-11.27a63.13,63.13,0,0,0-4.32-10.07c-11.64-20.8-37.1-26.49-61.55-27.27-39.85-1.29-70.54,4.36-106.73,11.77-33.52,6.87-62.21,16.46-97,21.58a734.63,734.63,0,0,1-110,8c-95.87-.17-211.22-16.3-284.6-71.61-4-3-63.17-50.81-64.08-54.1.21-8.87,8.1-53.3,11.07-58.51l35.35,25c28.91,19.58,87.72,53.49,122.25,55.15-4.75-5.47-12.12-11.66-18-17.79a265.62,265.62,0,0,1-31.66-40.11c-15.56-24-25.24-41.42-46.91-60.21-8.67-7.58-33.52-23.27-44.07-27.57,1.35-10.27,9.11-29.34,12.34-39,7.63,1.41,39,21.31,46.91,26.52,29.38,19.25,53.8,43,72.19,73.18,6.36,10.42,24.46,33.33,35.32,36.52-.4-14.2.74-29.93,1.74-44,.87-12.75,3.88-29.08,3.75-40.76-12.73-6.26-59.25-63.54-151.5-72.7,2.48-13.38,13.47-31.45,17.66-44.68,14.91.19,63.86,19.88,78.52,27.11,17,8.37,34.57,18.4,49.74,29.63,3.05,2.26,4.62,3.46,7.76,5.66,7,5,5,4.43,7.32,3.08l5.14-23.42c.22-4.09-1.34-4.16-4-6.27L258,595.88a386.77,386.77,0,0,1-51.27-68.31c-8-13.34-13.51-19.25-8.81-26.92S224.71,457,229.2,452.74c2.14,2.07,15.09,27.42,18.44,33,13.91,23.2,26.73,40,44.12,59.16,4.54,5,7.81,8.48,12.74,13.1,3,2.9,9.46,10.16,13.59,11.25,2.75-9.42,8-21.56,11.78-30.45,2.26-5.36,4.09-9.7,6.36-14.69,1.31-2.86,6.19-11.8,4.8-13.59-4.53-6-11.21-12-17.09-18.87-17.27-20.21-45.82-61.15-55.15-85.54-2.36-6.23.21-7.5,3.35-11.12l36.45-42c2.14-2.29,2.44-2.77,4.8-3.68,4.44,7.91,8.37,18.87,12.6,27.42a286.83,286.83,0,0,0,14.42,25.76c6.63,10.49,28.21,40,37,43.45,5.23-10.36,21.76-33.38,29.08-43.79,8.81-12.56,27.16-34.25,31.3-40.51-2.22-2.63-6.15-3.94-10.9-6.43-15.65-8.19-66.61-38.43-71.8-48.1,2.61-4,36.75-34.49,41.5-36.15,12.91,9,23.2,16.4,39.68,24.2,13.12,6.23,32.87,12.92,48.21,15.78,3.79-1.9,10.29-9.29,14.17-12.69,4.67-4,10-8.67,14.17-12.62,9.2-8.72,19.32-15.8,29.3-24.19-.87-4.5-17-27.36-20.89-33.07-3.48-5.21-19.39-27.75-20.7-32.52,12.82-6.2,36.23-22.37,49.09-27.34,4.62,3.42,15.52,18.35,20.14,23.78,3.57,4.23,16.61,21.67,20.23,23.39-.14-20.29-5.54-45.75-2.75-66.27,9.94-3.35,42.11-19.7,49.27-20.2-.4,12.12-.92,23.93-.88,36.34l1.14,26.68c.65,8,.56,6.34,2.31,5.79,9.46-4.07,19.22-9.7,29-14.45s19.83-9.17,29.78-13.36c-1.66-3.38-38.07-33.79-44-47.69,3.31-2.91,51.75-19.19,58.29-19.19,8.5,8.11,15.91,16.07,25.11,23.7,5.19,4.25,22.76,19.46,29,18.53,30.3-7.37,64.52-18.42,97.26-21.26-.7-7.76-7.8-21.25-11.33-27-6.15-9.91-10.51-13.07-17.45-20.7,5.85-4,72.68-8.5,85.93-8.87,9.94-.27,21.19,14.58,26.73,21.34,7.71,9.35,16.74,26.5,19.14,27.75,2.66-1.49,4.44-8.81,6.93-14.2A114.45,114.45,0,0,1,989.7,76.71c3.18-3.72,7-8.78,12.25-9.11,14-.82,65.39,3.88,78,6.72-1.57,3.51-12.56,13.36-19,22-3.83,5.17-12.77,18.64-14.43,25.46M1861,993.86c7.89-133-23.68-274.38-67.66-380-23.16-55.65-46.35-97.57-77.87-146.95-30.78-48.25-84.4-113.87-126.65-153.56-71-66.64-139.33-117.82-230.88-162.2C1126.59,39.07,857.6,29.2,618.83,128.68c-108.74,45.3-219.56,119-300.38,204.58-9.33,9.92-17.92,19-27.08,29.32C159,511.88,72.12,712.31,65.93,922.12c-4.35,146.44,20.32,263.26,67.93,381.36,32,79.28,74.81,147.29,124.81,211.86,23.59,30.45,52.36,61.66,80.05,88.28,67.79,65.24,144.08,120.63,230.84,162.22C674.19,1816,792.25,1851.16,928.4,1856c141,4.94,266.42-20.91,380-67.93,53.85-22.3,102.46-49.24,146.84-77.93,131.18-84.79,248.89-216.63,315.68-357.62,57.29-120.94,81.88-221.12,90-358.62" transform="translate(0 0)"/><path class="cls-7" d="M423,1190.26c4.36,2.22,8.55,5.53,13.52,8.45,33.83,19.88,90.94,30.89,129.35,30.37,27.64-.39,54.54-4.82,79.74-11,14.52-3.62,60.16-16.68,69-22.78-31.87-14.6-77.56-30.69-112.27-43.68-50.13-18.77-114.39-42.69-159,5.68-5.09,5.5-18.83,23.28-20.27,33" transform="translate(0 0)"/><path class="cls-7" d="M1364.76,1398.41c-1-14.49-32.31-49.28-40.06-58.66-46.08-55.54-125-93-205.56-93.75,3.57,13.1,34.88,49.3,42.59,56.85,17.48,17.09,30.3,31.78,52.84,46.58,41.51,27.18,97.7,49.24,150.19,49" transform="translate(0 0)"/><path class="cls-7" d="M756.2,1524.91c16.87-1.05,50.22-16.22,61.77-23.61,57.73-36.86,79.61-109.25,77.08-181.82-11.55.63-46,26.2-53.62,32.15A225,225,0,0,0,799,1395.27c-24.33,33-41.33,77-42.81,129.64" transform="translate(0 0)"/><path class="cls-8" d="M756.2,1524.91c1.48-52.6,18.48-96.66,42.81-129.64a225,225,0,0,1,42.42-43.64c7.58-6,42.07-31.52,53.62-32.15,2.53,72.57-19.35,145-77.08,181.82-11.55,7.39-44.9,22.56-61.77,23.61m833.09-53.71c4.22,8,13.59,25.48,15.43,33.34-22.76-1-58.12-14.69-75.82-23.75-24-12.28-41.06-25.44-58.55-40.9-17-15.08-32.61-33.83-46.61-52.81-5.44-7.35-34.87-51.12-37-61,22.11,1.07,58.9,14,76.82,22.15,44,19.92,79.91,52.31,106.9,92a343.41,343.41,0,0,1,18.84,30.94M360.6,1274.62c-1.18-10,4.58-24.35,9.2-30.15,23.81-29.78,75.77,9,80.26,18.16-12.86,8-64.39-1-89.46,12m964.1,65.13c7.76,9.38,39,44.17,40.06,58.66-52.49.26-108.68-21.8-150.19-49-22.54-14.8-35.36-29.49-52.84-46.58-7.71-7.55-39-43.75-42.59-56.85,80.61.78,159.48,38.21,205.56,93.75m-647.8-98.22c3-9.7,34.74-27.27,50.87-29.39,25.81-3.38,38.94,17.16,39,40.81-15.83-5.38-23.45-7.24-42.2-8-18-.77-30.78,1.22-47.69-3.38M423,1190.26c1.44-9.72,15.18-27.51,20.27-33,44.65-48.37,108.91-24.45,159-5.68,34.71,13,80.4,29.08,112.27,43.68-8.81,6.1-54.45,19.16-69,22.78-25.2,6.23-52.1,10.66-79.74,11-38.41.52-95.52-10.49-129.35-30.37-5-2.91-9.16-6.23-13.52-8.45m475.56-188.42c-4.67,2.24-13.48,10-18.19,13.86-16,13.25-37.57,28-54.84,39.89-15.17,10.48-22.63,15.21-45.25,18.83-32.88,5.28-80.26-2.87-111.78-11.94-17.75-5.1-32.79-8.88-52.19-10.62C550.42,1046,464,1068,404.94,1093.08c-30.08,12.8-60.6,23.72-95.22,31a435.61,435.61,0,0,1-116.83,8.72c-51.92-3.21-62.39-9.23-107.69-19.4,1,6.12,3.89,25.33,5.76,30.34,1.13,3.09,1.26,2.55,4.66,3.79l20.45,7.3c17.79,6.24,36.88,12.28,52.8,18.93-3.71,2.28-26.34,6.56-32.88,8-7.89,1.76-27.81,4.73-33.26,8.17L113.32,1229c11.56-.13,25.16-2.53,37.45-3a705.61,705.61,0,0,1,115.4,5.43c-3.44,18-70,46.63-90.37,55.19-6.24,2.64-12,4.82-17.75,7.13-4.92,2-13.25,4.62-17.57,7.08,1,5.91,18.23,42.1,21.8,47.7,4.71-.22,25.42-7.61,32.44-9.4,88.24-22.67,181.71-20.75,271.78-10.65,49.79,5.58,112.74,9.11,163.49,4.83,36.4-3.07,71-10.22,103.89-23.21,10.24-4.06,20.92-10.23,30-13.25-3.75,7.34-17.09,21.4-22.54,27.37-60.78,66.34-153.68,98.4-246,106.86-99.1,9.07-200.37-21.78-290.88-56.72-6.36-2.46-11.94-4.69-17.87-7s-13.08-5.93-18.75-7.26c3.1,12.82,32.48,59.62,41.46,74.49,2.49,4.07,2.84,3.75,8.29,5,6.8,1.59,14.47,3.18,21.23,4.69,7.1,1.57,14.21,2.88,21.49,4.38,5.36,1.13,17.05,2,21.49,5.19-13.86,4.36-38.62,4.92-54.4,6.08.91,6.62,30.3,43,36.18,51.18,19.32-1.55,33.35-6,55-5-1.4,2.51-.05.59-2,2.57l-13.77,14c-5.67,6.13-11.25,11.34-14.7,17.25,3,5.45,31.09,35.77,34.79,38.36,5.37-2.81,11.82-9.37,23.94-15.39,40-20,96.78-17.46,141.56-16.12,35.53,1.06,36.36,3.31,74.63-.84,10-1.06,26.69-4.75,36.15-3.72,27.55,2.92,14.21,36.84,6.36,52.71-20.79,42.09-62.65,72-101.36,96.61-8.24,5.25-17.48,9.74-25.11,15,6,6.89,37.28,23.72,48.17,29.85,4.15,2.33,13.52,9,17.7,7.47,13-4.77,48.92-35.29,61.3-44.92,15.78-12.23,50.53-47.24,56.94.76,5.14,38.17-10.82,76.23-12.25,93.71,4.79,2.92,46.95,17.31,53.62,18.16,4.14-20.56,7.24-37.82,13.95-56.81,4.18-11.85,17.09-43,23.32-48.26,15.48,12.21,34.49,42,43.78,59.38,10.85,20.19,24.19,47.82,31,72.17,14.51,2.12,51.27,9.14,64.52,7.81-1.48-13.85-10.25-40-15.74-52.56-8.15-18.66-15.21-26.44-27.42-41.5-19.79-24.35-40.41-51.75-59.47-78.3-38.62-53.84-9.11-103.09,43.86-127.59,12.64-5.84,37-15,52.71-16.74-10.68,68.41,11,131.73,50.27,181.15,6.53,8.3,31.69,35.51,40.41,39.34-4-41-10.6-71-3.53-113.59,4.75-28.49,19.88-64.48,45.47-78.19,2,1.11,12.16,14,14.34,16.52,18.66,22.22,41.25,41.09,61.74,61.65,15.38,15.45,77.16,62.93,95.65,73.72,29.07,17,48.74,43.42,69.1,70.45,3.88,5.1,9.24,13.56,13.6,18,5.23-.5,41.46-14.47,44.81-17.24-1.08-8.72-10.07-31.47-13.33-41-2.27-6.65-4.8-13.58-7.2-20.51-2.09-6.06-5.93-14.74-7-20.62,12.34,8,39.85,36.27,51.75,47.56,4.92,4.71,12,12.71,17,16.24,5.63-1.55,39.06-18.24,41.38-21.8-11-16.5-93.26-80.87-109.43-92.66-47.83-35-97.44-70.76-142-109.58-49.27-43-90.2-80.37-100.84-151.76a208.34,208.34,0,0,1-1.22-48.15c.87-9.12,4.36-35.78,7.89-42.45,16.44,3,48,29.49,60.43,40.81,34.17,31.32,64.3,74.48,88,115.68,24.64,42.68,54.11,82.64,90.16,113.59,18.4,15.79,37.8,30.5,56.94,45.37l29,21.73c18.45,14.71,37.49,30.8,54.15,47.23,6.84,6.79,18.7,20.84,25.89,25.68l32.57-21.64c-2.09-5-11.46-14.72-15.56-22.08-4.4-8-8.15-18.18-8.37-29l70.67,15.17c9.59-6.52,53.45-45.49,55.72-50.68-33.62-1.64-59.47-2.4-92.74-9.73-57.33-12.64-93.12-30.14-133.09-71.43a330.68,330.68,0,0,1-23.81-26.85c-4.58-5.72-18.66-24.05-21.1-30.43,42.12.11,134.1,20.46,172.55,31.08,39.28,10.86,75.34,24.29,111.83,40.22,8.11,3.55,29.52,14.82,36.53,16.15,2.62-4.77,10.33-12.77,13.3-16.22,18.44-21.31,36-45,52-68.53,4.54-6.69-.17-9.28-5.49-19.2-3.75-6.92-20-36-19.92-40.4,18.22-.06,48.09-1.7,64.3-6.54,4.8-1.43,5.67-5.77,7.8-9.56,5.89-10.49,15.18-25.21,18.45-36.47-48.44,0-77.69-7-122-25-20.45-8.3-122.07-63.43-146-75.83-16.13-8.33-32.61-16.72-49.18-24.48-16.35-7.61-35.23-15.28-49.83-23.81-12.25-7.1-36.41-22.75-39.33-34.85,43.91-3.75,85.71-1.61,125.08,9.48a473.42,473.42,0,0,1,50.14,17.7c16.08,6.52,31.08,14.87,47,21.76,55.15,23.83,98,37.14,157.38,47.39,14.39,2.46,47.22,8.48,61.12,7.78,3.1-5.47,13.56-35.73,14.52-42.33-51-5-106.72-16.35-148.75-43.53-9.41-6.07-28.12-22.48-31.26-33.83,52.75,1,154.68,16.17,199.94,4,3.48-7.24,9.85-47.61,11.25-58.37-9.68.71-32.83,9.37-53.54,12.27-68.32,9.53-153.37-13.85-214.46-40.68l-47.6-16.48c-53.71-17.89-113.87-6.6-166.8,9.79-16.61,5.15-34.4,9.11-51.62,13.47-36.58,9.29-71.85,18.73-113.31,15.7-36.31-2.64-60.55-19.56-89.33-39.65-24.28-17-34.31-26-55.19-42.38l-17.44-14.65c-4,4-8.28,14.15-10.29,22-7.06,26.95,3.1,55.13,20.63,73.46a121.43,121.43,0,0,0,17.56,15c6.46,4.66,14,7.87,21.1,11.25,8.33,4,15.61,5.33,24.55,8.24,11.33,3.7,16.57,1.91,28.2,1.13l43.17-5.3c32.83-6,64.39-9.72,96.43-17.5,40.33-9.81,38.94-9,84.23-12.17,68.1-4.73,131.23,1.79,174.43,53,10.24,12.17,10,14.29,24.68,23l50.22,31.06c6.1,3.68,13.51,7.67,20.45,11.07,34.44,17,63.73,25.9,104.32,25.11l-4.49,2.3a40.69,40.69,0,0,1-6.15.62,176.52,176.52,0,0,1-36.35-1.17c-12.21-1.75-28.61-6-39.15-10.4-14.22-5.86-30.39-11.84-43.21-20a81.69,81.69,0,0,0-8.24-4.16c-13.21-6.59-51.66-30.3-60.29-40.14a174.24,174.24,0,0,0-40.46-34.15c-50.27-30.26-120.85-15.46-177-12.23-9.46.54-12.6,2.61-19.62,5.14-6.84,2.49-11.94,4.4-18,6.65-35.23,13.17-85.58,22.67-123.2,27.25-3.88.48-8.46.2-12,.74-3.23.5-.87.67-5.15,1.26-8.67,1.2-18.48.79-27.2,2.29l140.69,34.31c21.8,7.48,45.25,13.13,66.05,21.93,2.66,1.13,5.66,2.38,8.1,3.23l7.55,3c4.27,2.07,11.2,4.12,15.91,6.15,30,12.86,59,26.44,85.49,45.56,4.49,3.25,7.67,5.67,12.51,9.57,12,9.7,25.82,18,39.07,26,21.32,12.93,68.09,32.72,92.42,38.78,5.27,1.33,29.21,7.57,33.09,9.88-24.54.39-60-10.07-81.22-16.35l-26.94-10.44c-2.88-1.33-5-2.38-7.76-3.62-12.82-5.63-20.54-12-31.18-17.66l-29.07-19.72c-12.43-8.84-25.46-14.79-38.1-23.11l-24.55-11.86c-19.36-9.79-38.8-15.48-51.84-21.75-4.49-2.16-6.8-1.31-10.11-2.62a34.26,34.26,0,0,0-7.85-3.64c-4.4-1.27-5.53-2.27-8.59-3.34l-28.2-8.41c-32.7-9.81-83.49-22.8-117.76-28.6l-41.2-7.69c-8.45-2.27-76.73-14.32-82.74-13.15.08,6.54,3.18,10.36,6.93,14.52,3,3.29,6.67,7.37,10,11l122.94,152.46c9.9,8.17,21.32,14.32,32.27,21.36l1.74,1.11,1.18.81.56.39c9,6,20.58,11.31,30.43,16.33,14.13,7.19,29.3,14.51,44.21,19.88l31.61,11.62c2.27.84,2.48,1.06,4.1,1.61,1.26.41,2.57.69,3.75,1.07,7.19,2.13,16.56,6.54,23.67,7.61,11.51,1.74,21.62,6.53,33,9l34.52,7.78c2.84.54,15.13,2.12,16.74,4.36-4.75,2.29-11.25-.89-16.43-1.28-14.91-1.16-33.88-5.91-48-8.79-21.15-4.29-72.28-16.37-90.11-23.93-2.36-1-4.28-1.57-6.89-2.71l-20.1-7.58c-7.93-3.12-6.24-1.75-13.51-5.76-4.28-2.35-8.33-3.94-12.65-6.32l-12.6-6.56c-4.36-2.07-7.41-5.6-12.33-6.1,2.22,6.62,18.57,27.83,24.15,36.38,1.56,2.42,3,5,4.57,7,8.76,11.47,25.77,37.91,32.79,50.38,5.1,9.11,25,29.19,33.87,36.79l21.54,19.58c.87.87,1.83,1.5,3.14,2.7l51.18,42.53c3.27,2.44,4.14,2.2,6,6-5.1-1.74-10.86-7-15.7-9.67-9.59-5.39-19.48-13.17-29.21-19.65-9.24-6.14-18.87-13.84-29-19.77-5.45-3.18-9.12-6.82-13.52-10.26-5.32-4.1-8.89-6.48-13.69-10.27-4.27-3.38-8.89-8-12.9-11-28.42-20.84-32-38.23-43.47-53.12l-22.23-33.22c-1.26-1.53-.22-.18-1.31-1.61l-6-8.35c-3.58-4.86-7.11-9.46-10.33-13.63l-24.55-31a32.73,32.73,0,0,1-2.53-3.18l-16.65-19.67c-2.22-2.63-4-4.55-6-6.5-2.27-2.35-3.62-4.5-5.58-6.82-19.84-23.5-72-82.22-91.78-101.38L1002.78,1193c-1.87-1.89-3.88-3.75-6.19-6.27l-.92-1c-.13-.15-.3-.39-.43-.54-1.74-2.29-1.31-3.12-4.67-3.6-7.41,11.53-27.42,179.2-29.21,211.14-1.17,21.08-4.62,43.81-5.27,65.07-.17,5.34,1.09,6-2,8.11-.08-26.84-.26-53.47-1.78-79.88-2.32-38.69-3.54-76.09-8.85-113.84-1.7-11.73-3.19-22.91-5.11-35.21-1.52-10.11-3.53-24.41-5.79-34.09-2.14-9.2-4-24.28-7-32.68-3.66.26-1.66-.41-3.53,3.64-9,19.25-29.3,52.54-40.42,68.77-15.39,22.44-33.09,45.17-50.22,65.51-3.66,4.38-19.36,19.79-20.89,23.06-5.84,12.39-9.8,29.17-16.21,41.31l-44.12,85.91c-3.18,5.66-7.46,12.64-11.3,18.29l-29.46,43.25c-2.1,2.43-3.75,5.44-6,8.32-21,26.7-42.85,54.25-66.7,78.69L604,1639.33c-9.15,9.17-64.35,58.55-74.37,62.3,6.28-6.17,13.16-11.51,19.18-18.05,3.75-4.06,5.84-5.11,9.81-9.29,12.16-12.84,25.28-24.15,37.36-37.23l35-39.57c5.63-6.08,20.84-23.3,25.38-30,6.49-9.57,13.34-17,19.57-26.5l26.77-38.24c12.25-18.79,31.65-48.3,42.33-69.6a128.69,128.69,0,0,1,6.63-12.6l6.32-11.77c1.92-4,4.93-8.87,6.67-12.45,3.57-7.21,16.26-31.47,16.7-38-3.93,1.2-17.62,14.19-22.59,17.76-23.8,17.07-46.86,34-72.76,46.91-4.36,2.2-9.5,4.69-13.25,6.74-13.25,7.21-43.6,19.82-56.42,23.85-25.85,8.1-51.7,15.85-78.25,21.34-9.77,2-24,5-34.4,5.88-6.89.63-11.34,1.38-17.92,2.21-4.05.52-13.82.6-17,1.63-14,4.6-96.78,5-113.13,2.57-10.46-1.55-57.63-2.68-65.7-4.69l-6.76-1.37c29-.93,58.42.33,87.5-.39l26.77-1.62a475.79,475.79,0,0,0,79.74-8.6c12.47-2.56,25.24-3.36,37.45-6.65l34.87-8.37a600.91,600.91,0,0,0,86.46-30.09,15.57,15.57,0,0,0,2.39-1.28l7.77-3.68c13.25-5.06,26.37-12.78,38.4-20l20.1-12.46a12.91,12.91,0,0,1,2.49-1.42,44.38,44.38,0,0,0,4.1-2.47l25.19-18.77c2.88-2.35,5.19-4.29,7.89-6.47,16.83-13.49,31.48-26.77,45.61-42.46,2.61-2.92,3.92-5.08,6.45-7.89,2.79-3.1,4-3.93,6.84-7.48,8.33-10.68,17.7-21.6,25.42-33,10.42-15.48,19.35-29.15,28.34-45.26,1.74-3.18,3.27-6.12,4.92-9.2,2-3.74,3-6.45,4.75-9.74a102.3,102.3,0,0,0,4.89-9.31c3.18-7.74,16.57-34,16.26-40.69-15.91-.2-31.78,2.76-49.61,1.26-16.48-1.4-31.83-2.51-46.65-6.28-14.17-3.6-28.64-6.12-42.34-10.27-26.85-8.15-51.48-16.3-77-27.18l-13.95-6c-7.36-2.62-15.86-5.27-23-8.83-11.6-5.77-31.26-6-45.56-6.93-16.83-1.07-33.66-1.46-50.7-1.35-53.15.39-109.6,11.88-143.79,52.58l-5.83,6.56c-3.88,5-6.07,11.44-11.56,15.22-16.91,11.59-36.49,18.05-57.55,20.11-24.59,2.42-62.82-.82-86.62-10.72l-3.71-2.09c8.28.52,18.53,4.44,26,5.82,7.72,1.39,19.28,3.2,26.73,3.53,28.86,1.2,54.93-.42,78.78-14.74l4.57-3.16c4.1-2.92,9.21-6.12,12.13-10.68l6.71-9.68c3.62-4.71,13.38-15.72,17.48-18.85l5.15-4.41c5.4-5.4,12-9.15,18.4-13.1,55.32-34.24,117.14-35.24,182-33.41,15.43.43,26.2,1.87,39.63,7.41,2.62,1.06.91,1,5.06,2.35l52.92,17c13.82,5.54,33.26,10.22,47.78,14.17,5.5,1.5,14,2.57,19.58,4.57,9.33,3.41,21.58,4.67,31.21,6.72,10.77,2.27,17.79,1.44,27.38-1.75,6.15-2.07,16.05-5.31,21.45-9.13,27.6-19.49,71.89-50.68,56.5-91L901,1006.8c-2.36-3-2.14-1.8-2.44-5" transform="translate(0 0)"/><path class="cls-9" d="M300,903.13c7.41,4.14,61.42,9.7,74.54,10.62,40.72,2.81,119.54,4,161.36-5.32,21.18-4.73,47.73-7.63,69.57-15.48,14.22-5.14,72.9-14.1,89.77-16.61,6.54-1,13.78,0,20.1-1,10.72-1.72,30.43-1.31,41.07,0,29.29,3.73,42,8.16,61.9,22.91,2.84,2.14,8.2,8,10.34,10.69A135.5,135.5,0,0,1,837,921.66a105.3,105.3,0,0,1,9.16,22.3c1.39,5.19,1.61,4.88-2.14,7.56,18.71.77,37-17,43.86-26.83,8.5-12.14,16.48-36.56,16.61-54.19.13-23.58.26-47.21.26-70.8,0-11.47.78-62.67-.22-69.65-2.31,1.22-15.74,14.24-25.33,20.47-31.34,20.47-68.92,28.9-108.72,24.28-45.65-5.25-87.94-31.67-110.17-70.42-26.64-46.5-24-96.68,2.87-140.23,4.67-7.65,13.39-17,21.32-24.59a137.14,137.14,0,0,1,25.94-19,156.33,156.33,0,0,1,31.35-13.67c18.74-5.82,27.11-4.95,37.4-7.6-4.27-3.08-12.25-6-17.39-9.29C697.3,449.23,690,352.34,771.28,309.7a106.13,106.13,0,0,1,40.42-12.08,138.36,138.36,0,0,1,25.5.18c8.33,1,15.35,3.11,22.72,3.81-.57-15.19-8.86-29.71-3.62-56,5.84-29.41,31.17-56.92,55.5-68.86C958,154,1020.48,166.92,1049.73,203c9.73,12,15.09,24.9,18.53,43.67,5.76,31.45-1.09,37.9-3,55.6,13.56-.65,18.26-6.95,47.74-4.88,39.28,2.79,76.55,29.14,93.12,64.83,11.51,24.8,10.2,63.32-2.36,86.45-6.27,11.64-15.08,21.41-23.28,29.32-10.76,10.33-19,13.53-31.91,20.62,4.1,1.77,14.21,1.81,19.44,3.11,6.54,1.64,11.43,2.6,18.18,4.67,30,9.16,60.51,33.16,77.21,58.62,26.77,40.74,30.3,98.42,2.71,140.14-22.67,34.18-56.37,62.34-110.65,70.21-43.86,6.34-88.29-8.33-120.9-35-5.93-4.84-8.67-8.89-12.51-9.83-.74,22.89,0,47.11,0,70.15,0,41.11-5.92,91,16.35,123.33,8.77,12.71,27.29,27.51,42.07,27.53-.17-8.23,7.94-24.39,11.38-30.52,29.65-52.53,107.2-51.31,160-42.08,14.87,2.61,59,10.42,70.67,14.36,17.52,5.91,51,12.18,69.23,15.15,66.75,10.81,131.53,9.92,197.67,1.59l36.79-6.1c.22-12.82,3.54-28.3,4.54-42,3.14-43.56,3.88-86.24-1.13-129.33-6.11-52.1-16.53-103-32.88-147.86-35.61-97.87-70.4-153.07-133.84-227.7-12.21-14.35-31-33-45.16-45.72-16-14.42-30.17-26.83-48.88-41C1256,184.62,1117.35,133.85,962.8,133.63A665.46,665.46,0,0,0,609.89,234.45c-30.34,18.92-51.8,35.53-78.56,57.26-40.9,33.2-77.12,74.75-109,116.78-13.16,17.39-23.63,34.13-35.75,54.18-21.1,35.06-43.12,80.92-56.89,123.67C310,647.57,305.41,670,297.17,734.78c-6.1,47.57-4.4,110.65,2.66,159.7.35,2.55,1.22,6.4.18,8.65" transform="translate(0 0)"/><path class="cls-5" d="M816.54,988.65c-.92,8.08-3.36,15.91-7.81,20.42-41.89,42.6-107.25,31.32-160.83,19.44-36.35-8-57.28-15.78-95.39-18.11-126.38-7.74-187.63,34.51-290.61,52.43-63,10.94-111.52,2.3-167.15-23.46-5.84-2.7-14.47-8.07-20-9.63a591.52,591.52,0,0,0,10.5,83.64c45.3,10.17,55.77,16.19,107.69,19.4a435.61,435.61,0,0,0,116.83-8.72c34.62-7.26,65.14-18.18,95.22-31,59-25.09,145.48-47.12,211.4-41.22,19.4,1.74,34.44,5.52,52.19,10.62,31.52,9.06,78.9,17.22,111.78,11.94,22.62-3.62,30.08-8.35,45.25-18.83,17.27-11.92,38.84-26.64,54.84-39.89,4.71-3.88,13.52-11.62,18.19-13.86,1.91-3,9.15-9.81,12.59-10.77,10.86,6.21,15.91,33.39,17.62,49.46,2,19.39-7.59,37.38-17.79,47.82-17.61,18-57,34.51-82.84,43.57L824,1133.5a8.3,8.3,0,0,0-2.22,1.3c20.23,0,70.75-16.52,89.32-27.18,5.67-3.24,10.34-6.21,19.28-5.23,8.24.87,9.8,3.7,12.42,11a141.18,141.18,0,0,1,5.28,18.87c8.19,37.82,11.46,89,11.2,129.42,0,9.07,1.27,39.11,0,45.34.35-11.93-.31-12.38,1.78-22.93,1.23-6.13.87-17.66,1.53-24.41,1.48-15.11,3.62-31.77,4.71-45.85,1.7-21.6,11.94-89.15,21.36-106.18,7.76-14,32.79,3.82,35.79,5.36,20.23,10.32,75.95,30.42,97,30.89-8.07-3.83-18.88-7.78-27.65-11.22-22.23-8.72-62.12-27.47-75.24-44.38a144.73,144.73,0,0,1-15.09-24.09c-4.92-10-2-24.48-.22-35.75,1.8-11.05,4.15-20.86,9.25-30.78,2.4-4.64,5.27-8.43,10.2-10,7.19-2.35,9.24,2.68,12.51,6.06l17.44,14.65c20.88,16.42,30.91,25.42,55.19,42.38,28.78,20.09,53,37,89.33,39.65,41.46,3,76.73-6.41,113.31-15.7,17.22-4.36,35-8.32,51.62-13.47,52.93-16.39,113.09-27.68,166.8-9.79l47.6,16.48c61.09,26.83,146.14,50.2,214.46,40.68,20.71-2.9,43.86-11.56,53.54-12.27,4.18-17.44,8-55.68,8.37-75.08-6.67,1.33-29.95,9.57-45.3,13-167.89,37.58-256.78-78.5-394.38-25.14-7.15,2.77-13.21,6.13-19.79,8.87-23.32,9.7-93.08,23.61-119.67,25.79-53.89,4.38-97.18-4.49-140.56-31.78-28.73-18.09-17-10.86-28.29-29.69-13.95,1-35.83-5.88-44.73-11.07a136.15,136.15,0,0,1-29.95-24.55A119.64,119.64,0,0,1,998,869.54c-2-52.25-.31-109.58.43-162.66,0-3.86-.17-50.31,2.14-52.25,5.19-3.16,140.38.11,160.22-1,1.57-3,1.7-6.65,1.83-10.81-4.67-2.94-83.71-18.07-124.38-66.86-30.74-36.88-44.43-100-40.5-148.9,2.7-.48,51.92,11.59,92.55-4,23.59-9.07,45.73-30.28,47.31-55.72-3.67.46-18.14,7.32-24,9.29a225.1,225.1,0,0,1-25.25,7.13c-44.12,9.19-95.47-5.72-107.81-51.34-1.61-5.93-4.71-23.74-1.44-28.93,1.48-1.57,9.42-1,11.42-1.11a54.18,54.18,0,0,0,10.94-1.5c16.92-4.06,38.33-18.35,42.08-30.47-15.48.15-31.66,1.89-45.82-2-21.23-5.84-21.28-14.06-26.34-21.67l-12.47.15c-1.83,2-2.79,4.65-4.88,7.48-15.69,21.32-48.57,15.78-68.31,15.85,1.65,6.54,17.52,19.83,25,23.89,4.92,2.68,11.72,5.73,17.83,6.95,7.63,1.51,15.34.55,22.32,1.73C954.39,323.51,946.54,343,938,355a72.4,72.4,0,0,1-38.1,26.88c-25,7.38-60.6,4.22-85.23-5-4.89-1.83-20-9.09-22.72-9.22,1,13.52,9.16,27.45,16.48,35.6,17.83,19.88,48.22,27.53,76,27.73,22.5.15,39.11-4.25,47.74-4.23,3.14,63.41-12.56,113-42.24,148.9-12.61,15.24-32.7,31.74-53.41,42.31C806,633.4,798.84,634.16,766.36,643l2.52,11.25,162.1.35c1.26,10.64.26,92.29.26,110.67.09,37,.26,74,0,111-.13,26.4-17.22,57.94-35.36,75.58-18.74,18.22-51.57,32-78.47,31.32Z" transform="translate(0 0)"/><path class="cls-10" d="M1861,993.86c-8.15,137.5-32.74,237.68-90,358.62-66.79,141-184.5,272.83-315.68,357.62-44.38,28.69-93,55.63-146.84,77.93-113.61,47-239,72.87-380,67.93-136.15-4.8-254.21-40-358.84-90.12-86.76-41.59-163-97-230.84-162.22-27.69-26.62-56.46-57.83-80.05-88.29-50-64.56-92.81-132.57-124.81-211.85-47.61-118.11-72.28-234.92-67.93-381.36,6.2-209.81,93-410.25,225.44-559.54,9.16-10.31,17.75-19.4,27.08-29.32C399.27,247.66,510.09,174,618.83,128.68c238.77-99.48,507.76-89.61,739.09,22.48,91.55,44.38,159.91,95.56,230.88,162.2,42.25,39.69,95.87,105.3,126.65,153.56,31.52,49.38,54.72,91.3,77.87,147,44,105.61,75.55,247,67.66,380M919.12,36.52c-7.37,1-19.53,1.18-27.07,1.61-26.21,1.55-51.54,5.37-77.48,9-49,6.91-92.51,20.49-139,33.92-25.51,7.37-58.17,21.49-82.84,31.85a625.8,625.8,0,0,0-58.9,28.23c-18.31,10-37.4,19.66-54.84,31.3L444.31,195.1c-35.75,24.63-65.18,48.46-97.66,76.49-39.28,34-80.17,78.28-111.21,119.28-21.67,28.64-34.1,45.5-53.76,76.32l-16.21,26.64c-7.07,12.57-13.91,25.61-20.63,37.79-13,23.54-25.8,52.06-36.83,79-11.25,27.64-20.89,55.83-29.74,85.1-4.71,15.61-7.85,30.17-12.16,45C62.27,753.92,58.3,775.35,56,789,44.09,859.82,36.51,930.46,41.3,1003c2.36,35.62,5.1,70.47,10.9,103.8,8.59,49.31,19,93.21,33.88,139.28a889.39,889.39,0,0,0,50.26,122.72L151,1397.52c1.61,3.46,3.57,5.88,5.23,8.87,13.56,24.37,23.37,39.41,38.23,62.19,14.3,22,38.19,56.56,55.11,75.07,18.57,20.36,35.09,41.92,54.67,61,20.1,19.65,38,38.17,59.73,56,33,27.07,47.38,37.67,81.52,62,18.31,13.06,38.5,24,57.42,36.23l14,7.94c28.6,15,47.52,24.72,77.82,38.12,34.13,15.13,69,26.88,105.54,38.71,30.65,10,61.08,16.09,93.26,22.41,67.31,13.21,141.64,17,215.23,14.48,25.72-.87,77.38-5.19,103.5-11.1,16.09-3.62,32.7-5,48.7-8.87,15.69-3.86,31.82-7.45,46.51-11.62,33.92-9.61,100.37-30.82,131.75-47.21,2.36-1.24,2.88-1.07,5.67-2.14,2.22-.85,6.8-3.16,9.59-4.58,19.71-10.17,38.41-18.11,57.81-29.42,15.83-9.2,30.69-16.85,44.86-26.82,8.2-5.8,18.23-11.22,26-17,24.5-18.4,40.93-28.93,66-49.72,5.49-4.56,10.72-9.22,15.56-13.15l15.87-13.8c17.09-13.25,56.55-55,72.15-72.24,5.1-5.64,8.72-10.33,13.21-15.47,4.84-5.56,8.24-10.12,13-15.72,17.26-20.34,60.64-79.08,72-101,6.54-12.64,14.65-23.84,21.19-36.38,3.31-6.41,6.84-12,10.51-18.94,15.17-28.77,33.52-69.32,44.68-99.81,1.36-3.75,2.44-6.8,3.8-10.62l17.61-54.28c4.62-15.32,8.59-28.75,12.29-44.84,7.37-32.19,14.7-64.82,18-97.65,5.71-56.44,10.77-106.94,6.53-165-1.39-19-2.09-35.66-4-53.8-1.52-14.89-3.44-34.63-6.75-48.39-2.83-12-5.15-33.46-8.81-48.72-6.85-28.9-14.34-62.5-24.81-90.68-8.06-21.71-13.9-42.4-23.06-63.13-22.67-51.4-47.13-104.61-79.26-151.32-3.75-5.45-7-11.71-11.42-17.22-4-4.93-7.59-11.38-11.72-17-4.54-6.13-8.25-11.36-12.61-17.07-47-61.51-82.61-98.11-139.73-149.08L1544,240.57c-7.54-7-16.13-12.62-24.42-18.79l-72.8-50.31-36.58-21c-3.4-1.79-6-3.18-9.33-5.06l-14.26-7.65c-16.65-10.24-35.88-17.09-53.8-25.59l-41.19-17c-38.41-12.89-68.15-24.13-109.39-34-16.48-3.94-31.69-7-48-10.35-7.76-1.64-16.22-2.18-24.81-4.1-8.07-1.81-16.57-2.27-25-3.62C1049,37.43,953.51,32,919.12,36.52" transform="translate(0 0)"/><path class="cls-11" d="M898.59,1001.84c.3,3.16.08,1.91,2.44,5l8.45,14.76c15.39,40.35-28.9,71.54-56.5,91-5.4,3.82-15.3,7.06-21.45,9.13-9.59,3.19-16.61,4-27.38,1.75-9.63-2-21.88-3.31-31.21-6.72-5.54-2-14.08-3.07-19.58-4.57-14.52-4-34-8.63-47.78-14.17l-52.92-17c-4.15-1.39-2.44-1.29-5.06-2.35-13.43-5.54-24.2-7-39.63-7.41-64.87-1.83-126.69-.83-182,33.41-6.37,4-13,7.7-18.4,13.1l-5.15,4.41c-4.1,3.13-13.86,14.14-17.48,18.85l-6.71,9.68c-2.92,4.56-8,7.76-12.13,10.68l-4.57,3.16c-23.85,14.32-49.92,15.94-78.78,14.74-7.45-.33-19-2.14-26.73-3.53-7.45-1.38-17.7-5.3-26-5.82l3.71,2.09c23.8,9.9,62,13.14,86.62,10.72,21.06-2.06,40.64-8.52,57.55-20.11,5.49-3.78,7.68-10.2,11.56-15.22l5.83-6.56c34.19-40.7,90.64-52.19,143.79-52.58,17-.11,33.87.28,50.7,1.35,14.3.89,34,1.16,45.56,6.93,7.11,3.56,15.61,6.21,23,8.83l13.95,6c25.51,10.88,50.14,19,77,27.18,13.7,4.15,28.17,6.67,42.34,10.27,14.82,3.77,30.17,4.88,46.65,6.28,17.83,1.5,33.7-1.46,49.61-1.26.31,6.73-13.08,33-16.26,40.69a102.3,102.3,0,0,1-4.89,9.31c-1.78,3.29-2.74,6-4.75,9.74-1.65,3.08-3.18,6-4.92,9.2-9,16.11-17.92,29.78-28.34,45.26-7.72,11.44-17.09,22.36-25.42,33-2.79,3.55-4,4.38-6.84,7.48-2.53,2.81-3.84,5-6.45,7.89-14.13,15.69-28.78,29-45.61,42.46-2.7,2.18-5,4.12-7.89,6.47l-25.19,18.77a44.38,44.38,0,0,1-4.1,2.47,12.91,12.91,0,0,0-2.49,1.42l-20.1,12.46c-12,7.26-25.15,15-38.4,20l-7.77,3.68a15.57,15.57,0,0,1-2.39,1.28,600.91,600.91,0,0,1-86.46,30.09L514.72,1464c-12.21,3.29-25,4.09-37.45,6.65a475.79,475.79,0,0,1-79.74,8.6l-26.77,1.62c-29.08.72-58.5-.54-87.5.39l6.76,1.37c8.07,2,55.24,3.14,65.7,4.69,16.35,2.42,99.14,2,113.13-2.57,3.14-1,12.91-1.11,17-1.63,6.58-.83,11-1.58,17.92-2.21,10.42-.93,24.63-3.86,34.4-5.88,26.55-5.49,52.4-13.24,78.25-21.34,12.82-4,43.17-16.64,56.42-23.85,3.75-2,8.89-4.54,13.25-6.74,25.9-12.9,49-29.84,72.76-46.91,5-3.57,18.66-16.56,22.59-17.76-.44,6.52-13.13,30.78-16.7,38-1.74,3.58-4.75,8.46-6.67,12.45l-6.32,11.77a128.69,128.69,0,0,0-6.63,12.6c-10.68,21.3-30.08,50.81-42.33,69.6L676,1541c-6.23,9.5-13.08,16.93-19.57,26.5-4.54,6.65-19.75,23.87-25.38,30l-35,39.57c-12.08,13.08-25.2,24.39-37.36,37.23-4,4.18-6.06,5.23-9.81,9.29-6,6.54-12.9,11.88-19.18,18.05,10-3.75,65.22-53.13,74.37-62.3l32.66-32.4c23.85-24.44,45.73-52,66.7-78.69,2.27-2.88,3.92-5.89,6-8.32l29.46-43.25c3.84-5.65,8.12-12.63,11.3-18.29l44.12-85.91c6.41-12.14,10.37-28.92,16.21-41.31,1.53-3.27,17.23-18.68,20.89-23.06,17.13-20.34,34.83-43.07,50.22-65.51,11.12-16.23,31.39-49.52,40.42-68.77,1.87-4-.13-3.38,3.53-3.64,3,8.4,4.88,23.48,7,32.68,2.26,9.68,4.27,24,5.79,34.09,1.92,12.3,3.41,23.48,5.11,35.21,5.31,37.75,6.53,75.15,8.85,113.84,1.52,26.41,1.7,53,1.78,79.88,3.1-2.14,1.84-2.77,2-8.11.65-21.26,4.1-44,5.27-65.07,1.79-31.94,21.8-199.61,29.21-211.14,3.36.48,2.93,1.31,4.67,3.6.13.15.3.39.43.54l.92,1c2.31,2.52,4.32,4.38,6.19,6.27l23.32,24.55c19.75,19.16,71.94,77.88,91.78,101.38,2,2.32,3.31,4.47,5.58,6.82,1.92,2,3.75,3.87,6,6.5l16.65,19.67a32.73,32.73,0,0,0,2.53,3.18l24.55,31c3.22,4.17,6.75,8.77,10.33,13.63l6,8.35c1.09,1.43,0,.08,1.31,1.61l22.23,33.22c11.42,14.89,15,32.28,43.47,53.12,4,3,8.63,7.63,12.9,11,4.8,3.79,8.37,6.17,13.69,10.27,4.4,3.44,8.07,7.08,13.52,10.26,10.16,5.93,19.79,13.63,29,19.77,9.73,6.48,19.62,14.26,29.21,19.65,4.84,2.72,10.6,7.93,15.7,9.67-1.88-3.77-2.75-3.53-6-6l-51.18-42.53c-1.31-1.2-2.27-1.83-3.14-2.7l-21.54-19.58c-8.89-7.6-28.77-27.68-33.87-36.79-7-12.47-24-38.91-32.79-50.38-1.52-2-3-4.55-4.57-7-5.58-8.55-21.93-29.76-24.15-36.38,4.92.5,8,4,12.33,6.1l12.6,6.56c4.32,2.38,8.37,4,12.65,6.32,7.27,4,5.58,2.64,13.51,5.76l20.1,7.58c2.61,1.14,4.53,1.73,6.89,2.71,17.83,7.56,69,19.64,90.11,23.93,14.12,2.88,33.09,7.63,48,8.79,5.18.39,11.68,3.57,16.43,1.28-1.61-2.24-13.9-3.82-16.74-4.36l-34.52-7.78c-11.43-2.49-21.54-7.28-33-9-7.11-1.07-16.48-5.48-23.67-7.61-1.18-.38-2.49-.66-3.75-1.07-1.62-.55-1.83-.77-4.1-1.61l-31.61-11.62c-14.91-5.37-30.08-12.69-44.21-19.88-9.85-5-21.44-10.36-30.43-16.33l-.56-.39-1.18-.79-1.74-1.13c-11-7-22.37-13.19-32.27-21.36L1045.11,1189c-3.31-3.68-7-7.76-10-11-3.75-4.16-6.85-8-6.93-14.52,6-1.17,74.29,10.88,82.74,13.15l41.2,7.69c34.27,5.8,85.06,18.79,117.76,28.6l28.2,8.41c3.06,1.07,4.19,2.07,8.59,3.34a34.26,34.26,0,0,1,7.85,3.64c3.31,1.31,5.62.46,10.11,2.62,13,6.27,32.48,12,51.84,21.75l24.55,11.86c12.64,8.32,25.67,14.27,38.1,23.11l29.07,19.72c10.64,5.63,18.36,12,31.18,17.66,2.79,1.24,4.88,2.29,7.76,3.62l26.94,10.44c21.23,6.28,56.68,16.74,81.22,16.35-3.88-2.31-27.82-8.55-33.09-9.88-24.33-6.06-71.1-25.85-92.42-38.78-13.25-8-27.08-16.3-39.07-26-4.84-3.9-8-6.32-12.51-9.57-26.46-19.12-55.5-32.7-85.49-45.56-4.71-2-11.64-4.08-15.91-6.15l-7.55-3c-2.44-.85-5.44-2.1-8.1-3.23-20.8-8.8-44.25-14.45-66.05-21.93L1114.43,1157c8.72-1.5,18.53-1.09,27.2-2.29,4.28-.59,1.92-.76,5.15-1.26,3.53-.54,8.11-.26,12-.74,37.62-4.58,88-14.08,123.2-27.25,6-2.25,11.12-4.16,18-6.65,7-2.53,10.16-4.6,19.62-5.14,56.11-3.23,126.69-18,177,12.23A174.24,174.24,0,0,1,1537,1160c8.63,9.84,47.08,33.55,60.29,40.14a81.69,81.69,0,0,1,8.24,4.16c12.82,8.19,29,14.17,43.21,20,10.54,4.36,26.94,8.65,39.15,10.4a176.52,176.52,0,0,0,36.35,1.17,40.69,40.69,0,0,0,6.15-.62l4.49-2.3c-40.59.79-69.88-8.1-104.32-25.11-6.94-3.4-14.35-7.39-20.45-11.07l-50.22-31.06c-14.69-8.76-14.44-10.88-24.68-23-43.2-51.22-106.33-57.74-174.43-53-45.29,3.14-43.9,2.36-84.23,12.17-32,7.78-63.6,11.51-96.43,17.5l-43.17,5.3c-11.63.78-16.87,2.57-28.2-1.13-8.94-2.91-16.22-4.28-24.55-8.24-7.06-3.38-14.64-6.59-21.1-11.25a121.43,121.43,0,0,1-17.56-15c-17.53-18.33-27.69-46.51-20.63-73.46,2-7.8,6.33-18,10.29-22-3.27-3.38-5.32-8.41-12.51-6.06-4.93,1.62-7.8,5.41-10.2,10-5.1,9.92-7.45,19.73-9.25,30.78-1.83,11.27-4.7,25.79.22,35.75a144.73,144.73,0,0,0,15.09,24.09c13.12,16.91,53,35.66,75.24,44.38,8.77,3.44,19.58,7.39,27.65,11.22-21.06-.47-76.78-20.57-97-30.89-3-1.54-28-19.35-35.79-5.36-9.42,17-19.66,84.58-21.36,106.18-1.09,14.08-3.23,30.74-4.71,45.85-.66,6.75-.3,18.28-1.53,24.41-2.09,10.55-1.43,11-1.78,22.93,1.31-6.23,0-36.27,0-45.34.26-40.44-3-91.6-11.2-129.42a141.18,141.18,0,0,0-5.28-18.87c-2.62-7.29-4.18-10.12-12.42-11-8.94-1-13.61,2-19.28,5.23-18.57,10.66-69.09,27.18-89.32,27.18a8.3,8.3,0,0,1,2.22-1.3l4.18-1.58c25.82-9.06,65.23-25.54,82.84-43.57,10.2-10.44,19.83-28.43,17.79-47.82-1.71-16.07-6.76-43.25-17.62-49.46-3.44,1-10.68,7.76-12.59,10.77" transform="translate(0 0)"/></g></g></g></svg>